# xmcd
#
# Track frame offsets: 
#        150
#        19092
#        35718
#        46025
#        62181
#        74190
#        92158
#        118176
#        140262
#        166707
#        177814
#        202274
#        231305
#        247665
#        273874
#        298809
#
# Disc length: 4266 seconds
#
# Revision: 1
# Processed by: cddbd v1.5.2PL0 Copyright (c) Steve Scherf et al.
# Submitted via: ExactAudioCopy v0.99pb5
#
DISCID=ed10a810
DTITLE=Various Artist - Pakeezah and Bazaar
DYEAR=1900
DGENRE=Bollywood
TTITLE0=[Pakeezah] Title Music - Alaap
TTITLE1=[Pakeezah] Inhin Logon Ne
TTITLE2=[Pakeezah] Najariya Ki Mari
TTITLE3=[Pakeezah] Chalo Dildar Chalo
TTITLE4=[Pakeezah] Aaj Kaun Gali Gayo Shyam
TTITLE5=[Pakeezah] Teer-E-Nazar Dekhenge
TTITLE6=[Pakeezah] Thare Rahiyo
TTITLE7=[Pakeezah] Mausam Hai Asiqana
TTITLE8=[Pakeezah] Chalte Chalte
TTITLE9=[Pakeezah] Mora Sajan
TTITLE10=[Bazaar] Dikhai Diye Yun
TTITLE11=[Bazaar] Karoge Yaad To
TTITLE12=[Bazaar] Chale Aao Saiyan
TTITLE13=[Bazaar] Phir Chiddi Raat
TTITLE14=[Bazaar] Dekh Lo Aaj
TTITLE15=[Bazaar] Dikhai Diye Yun
EXTD=
EXTT0=
EXTT1=
EXTT2=
EXTT3=
EXTT4=
EXTT5=
EXTT6=
EXTT7=
EXTT8=
EXTT9=
EXTT10=
EXTT11=
EXTT12=
EXTT13=
EXTT14=
EXTT15=
PLAYORDER=
